<?xml version="1.0" encoding="UTF-8"?>
<!DOCTYPE svg PUBLIC "-//W3C//DTD SVG 1.1//EN" "http://www.w3.org/Graphics/SVG/1.1/DTD/svg11.dtd">
<svg xmlns="http://www.w3.org/2000/svg" version="1.1" width="317px" height="316px" style="shape-rendering:geometricPrecision; text-rendering:geometricPrecision; image-rendering:optimizeQuality; fill-rule:evenodd; clip-rule:evenodd" xmlns:xlink="http://www.w3.org/1999/xlink">
<g><path style="opacity:0.95" fill="#7a6c63" d="M 153.5,-0.5 C 166.833,-0.5 180.167,-0.5 193.5,-0.5C 261.103,13.4363 302.103,54.1029 316.5,121.5C 316.5,134.167 316.5,146.833 316.5,159.5C 315.883,159.611 315.383,159.944 315,160.5C 314.431,166.093 313.265,171.426 311.5,176.5C 309.837,178.438 309.171,180.772 309.5,183.5C 309.5,184.167 309.5,184.833 309.5,185.5C 308.262,187.214 307.595,189.214 307.5,191.5C 306.833,191.5 306.5,191.833 306.5,192.5C 305.662,192.842 305.328,193.508 305.5,194.5C 304.662,194.842 304.328,195.508 304.5,196.5C 304.5,196.833 304.5,197.167 304.5,197.5C 303.094,197.973 302.427,198.973 302.5,200.5C 302.5,200.833 302.5,201.167 302.5,201.5C 287.933,228.067 267.6,249.067 241.5,264.5C 241.167,264.5 240.833,264.5 240.5,264.5C 239.833,264.5 239.5,264.833 239.5,265.5C 239.167,265.5 238.833,265.5 238.5,265.5C 237.833,265.5 237.5,265.833 237.5,266.5C 237.167,266.5 236.833,266.5 236.5,266.5C 235.508,266.328 234.842,266.662 234.5,267.5C 233.508,267.328 232.842,267.662 232.5,268.5C 231.508,268.328 230.842,268.662 230.5,269.5C 229.508,269.328 228.842,269.662 228.5,270.5C 226.621,270.607 226.288,270.107 227.5,269C 234.826,265.339 241.826,261.172 248.5,256.5C 249.833,256.5 250.5,255.833 250.5,254.5C 251.833,253.833 252.833,252.833 253.5,251.5C 255.027,251.573 256.027,250.906 256.5,249.5C 257.167,249.5 257.5,249.167 257.5,248.5C 258.167,248.5 258.5,248.167 258.5,247.5C 259.167,247.5 259.5,247.167 259.5,246.5C 260.167,246.5 260.5,246.167 260.5,245.5C 261.167,245.5 261.5,245.167 261.5,244.5C 261.833,244.5 262.167,244.5 262.5,244.5C 286.657,221.776 300.49,193.776 304,160.5C 306.444,95.9699 278.61,49.8033 220.5,22C 169.088,2.63582 121.421,9.30248 77.5,42C 63.7281,53.5923 52.3948,67.0923 43.5,82.5C 48.8452,70.1526 55.8452,58.8192 64.5,48.5C 64.5,48.1667 64.5,47.8333 64.5,47.5C 65.1667,47.5 65.5,47.1667 65.5,46.5C 66.1667,46.5 66.5,46.1667 66.5,45.5C 67.1667,45.5 67.5,45.1667 67.5,44.5C 68.1667,44.5 68.5,44.1667 68.5,43.5C 69.1667,43.5 69.5,43.1667 69.5,42.5C 70.1667,42.5 70.5,42.1667 70.5,41.5C 71.1667,41.5 71.5,41.1667 71.5,40.5C 72.1667,40.5 72.5,40.1667 72.5,39.5C 73.1667,39.5 73.5,39.1667 73.5,38.5C 74.1667,38.5 74.5,38.1667 74.5,37.5C 75.1667,37.5 75.5,37.1667 75.5,36.5C 76.1667,36.5 76.5,36.1667 76.5,35.5C 77.1667,35.5 77.5,35.1667 77.5,34.5C 78.1667,34.5 78.5,34.1667 78.5,33.5C 79.4916,33.6716 80.1583,33.3382 80.5,32.5C 81.1667,32.5 81.5,32.1667 81.5,31.5C 82.1667,31.5 82.5,31.1667 82.5,30.5C 82.8333,30.5 83.1667,30.5 83.5,30.5C 84.5,30.1667 85.1667,29.5 85.5,28.5C 86.1667,28.5 86.5,28.1667 86.5,27.5C 86.8333,27.5 87.1667,27.5 87.5,27.5C 88.1667,27.5 88.5,27.1667 88.5,26.5C 89.1667,26.5 89.5,26.1667 89.5,25.5C 90.1667,25.5 90.5,25.1667 90.5,24.5C 90.8333,24.5 91.1667,24.5 91.5,24.5C 92.1667,24.5 92.5,24.1667 92.5,23.5C 92.8333,23.5 93.1667,23.5 93.5,23.5C 94.5,23.1667 95.1667,22.5 95.5,21.5C 96.1667,21.5 96.5,21.1667 96.5,20.5C 96.8333,20.5 97.1667,20.5 97.5,20.5C 98.1667,20.5 98.5,20.1667 98.5,19.5C 98.8333,19.5 99.1667,19.5 99.5,19.5C 100.71,19.0679 101.71,18.4013 102.5,17.5C 103.167,17.5 103.5,17.1667 103.5,16.5C 119.381,8.36737 136.047,2.7007 153.5,-0.5 Z"/></g>
<g><path style="opacity:0.305" fill="#020101" d="M 94.5,11.5 C 94.8417,10.6618 95.5084,10.3284 96.5,10.5C 96.8333,11.8333 97.1667,11.8333 97.5,10.5C 99.8333,10.5 102.167,10.5 104.5,10.5C 104.675,12.6208 104.341,14.6208 103.5,16.5C 101.776,16.4607 101.443,16.794 102.5,17.5C 101.71,18.4013 100.71,19.0679 99.5,19.5C 99.1667,18.1667 98.8333,18.1667 98.5,19.5C 98.5,20.1667 98.1667,20.5 97.5,20.5C 97.1667,19.1667 96.8333,19.1667 96.5,20.5C 95.8333,20.5 95.5,20.8333 95.5,21.5C 95.1667,22.5 94.5,23.1667 93.5,23.5C 93.1667,22.1667 92.8333,22.1667 92.5,23.5C 92.5,24.1667 92.1667,24.5 91.5,24.5C 91.1667,23.1667 90.8333,23.1667 90.5,24.5C 90.5,25.1667 90.1667,25.5 89.5,25.5C 88.8333,25.5 88.5,25.8333 88.5,26.5C 88.5,27.1667 88.1667,27.5 87.5,27.5C 87.1667,26.1667 86.8333,26.1667 86.5,27.5C 85.8333,27.5 85.5,27.8333 85.5,28.5C 85.1667,29.5 84.5,30.1667 83.5,30.5C 83.1667,29.1667 82.8333,29.1667 82.5,30.5C 81.8333,30.5 81.5,30.8333 81.5,31.5C 80.8333,31.5 80.5,31.8333 80.5,32.5C 79.5084,32.3284 78.8417,32.6618 78.5,33.5C 77.8333,33.5 77.5,33.8333 77.5,34.5C 76.8333,34.5 76.5,34.8333 76.5,35.5C 75.8333,35.5 75.5,35.8333 75.5,36.5C 74.8333,36.5 74.5,36.8333 74.5,37.5C 73.8333,37.5 73.5,37.8333 73.5,38.5C 72.8333,38.5 72.5,38.8333 72.5,39.5C 71.8333,39.5 71.5,39.8333 71.5,40.5C 70.8333,40.5 70.5,40.8333 70.5,41.5C 69.8333,41.5 69.5,41.8333 69.5,42.5C 68.8333,42.5 68.5,42.8333 68.5,43.5C 67.8333,43.5 67.5,43.8333 67.5,44.5C 66.8333,44.5 66.5,44.8333 66.5,45.5C 65.8333,45.5 65.5,45.8333 65.5,46.5C 64.8333,46.5 64.5,46.8333 64.5,47.5C 63.1667,47.8333 63.1667,48.1667 64.5,48.5C 55.8452,58.8192 48.8452,70.1526 43.5,82.5C 52.3948,67.0923 63.7281,53.5923 77.5,42C 121.421,9.30248 169.088,2.63582 220.5,22C 278.61,49.8033 306.444,95.9699 304,160.5C 300.49,193.776 286.657,221.776 262.5,244.5C 262.167,243.167 261.833,243.167 261.5,244.5C 260.833,244.5 260.5,244.833 260.5,245.5C 259.833,245.5 259.5,245.833 259.5,246.5C 258.833,246.5 258.5,246.833 258.5,247.5C 258.167,247.5 257.833,247.5 257.5,247.5C 268.691,233.793 277.858,218.793 285,202.5C 303.676,137.833 285.176,86.0001 229.5,47C 179.086,18.643 129.752,20.3096 81.5,52C 63.4054,65.4225 48.9054,81.9225 38,101.5C 35.3333,101.5 32.6667,101.5 30,101.5C 29.5357,100.906 29.369,100.239 29.5,99.5C 30.3382,99.1583 30.6716,98.4916 30.5,97.5C 31.8333,96.1667 31.8333,94.8333 30.5,93.5C 30.2627,92.209 30.596,91.209 31.5,90.5C 31.7959,88.597 32.4625,86.9303 33.5,85.5C 44.158,57.2161 61.8246,34.2161 86.5,16.5C 86.8333,17.8333 87.1667,17.8333 87.5,16.5C 87.5,15.8333 87.8333,15.5 88.5,15.5C 88.8333,16.8333 89.1667,16.8333 89.5,15.5C 90.1667,15.5 90.5,15.1667 90.5,14.5C 90.5,13.8333 90.8333,13.5 91.5,13.5C 91.8333,14.8333 92.1667,14.8333 92.5,13.5C 93.4916,13.6716 94.1583,13.3382 94.5,12.5C 95.8333,12.1667 95.8333,11.8333 94.5,11.5 Z"/></g>
<g><path style="opacity:0.963" fill="#7a6c63" d="M 97.5,10.5 C 97.1667,10.5 96.8333,10.5 96.5,10.5C 95.5084,10.3284 94.8417,10.6618 94.5,11.5C 94.5,11.8333 94.5,12.1667 94.5,12.5C 93.5084,12.3284 92.8417,12.6618 92.5,13.5C 92.1667,13.5 91.8333,13.5 91.5,13.5C 90.8333,13.5 90.5,13.8333 90.5,14.5C 89.8333,14.5 89.5,14.8333 89.5,15.5C 89.1667,15.5 88.8333,15.5 88.5,15.5C 87.8333,15.5 87.5,15.8333 87.5,16.5C 87.1667,16.5 86.8333,16.5 86.5,16.5C 61.8246,34.2161 44.158,57.2161 33.5,85.5C 32.4625,86.9303 31.7959,88.597 31.5,90.5C 30.596,91.209 30.2627,92.209 30.5,93.5C 30.5,94.8333 30.5,96.1667 30.5,97.5C 29.6618,97.8417 29.3284,98.5084 29.5,99.5C 17.4624,148.908 27.2958,193.575 59,233.5C 64.757,239.763 70.9237,245.43 77.5,250.5C 96.696,267.431 119.029,278.598 144.5,284C 169.028,287.958 193.362,287.124 217.5,281.5C 218.791,281.737 219.791,281.404 220.5,280.5C 221.609,280.443 222.609,280.11 223.5,279.5C 223.833,279.5 224.167,279.5 224.5,279.5C 236.709,275.396 248.042,269.729 258.5,262.5C 258.833,262.5 259.167,262.5 259.5,262.5C 260.5,262.167 261.167,261.5 261.5,260.5C 261.833,260.5 262.167,260.5 262.5,260.5C 263.5,260.167 264.167,259.5 264.5,258.5C 265.167,258.5 265.5,258.167 265.5,257.5C 265.833,257.5 266.167,257.5 266.5,257.5C 267.167,257.5 267.5,257.167 267.5,256.5C 268.167,256.5 268.5,256.167 268.5,255.5C 269.167,255.5 269.5,255.167 269.5,254.5C 270.167,254.5 270.5,254.167 270.5,253.5C 270.833,253.5 271.167,253.5 271.5,253.5C 272.167,253.5 272.5,253.167 272.5,252.5C 273.167,252.5 273.5,252.167 273.5,251.5C 274.167,251.5 274.5,251.167 274.5,250.5C 275.167,250.5 275.5,250.167 275.5,249.5C 276.167,249.5 276.5,249.167 276.5,248.5C 277.167,248.5 277.5,248.167 277.5,247.5C 278.167,247.5 278.5,247.167 278.5,246.5C 278.833,246.5 279.167,246.5 279.5,246.5C 280.167,246.5 280.5,246.167 280.5,245.5C 281.167,245.5 281.5,245.167 281.5,244.5C 282.167,244.5 282.5,244.167 282.5,243.5C 283.167,243.5 283.5,243.167 283.5,242.5C 291.267,235.401 297.934,227.401 303.5,218.5C 303.5,218.167 303.5,217.833 303.5,217.5C 304.167,217.5 304.5,217.167 304.5,216.5C 305.167,216.5 305.5,216.167 305.5,215.5C 305.5,214.833 305.5,214.167 305.5,213.5C 306.167,213.5 306.5,213.167 306.5,212.5C 308.226,210.058 309.726,207.391 311,204.5C 311.893,203.289 312.726,203.289 313.5,204.5C 311.215,208.735 309.215,213.069 307.5,217.5C 306.833,217.5 306.5,217.833 306.5,218.5C 305.833,218.5 305.5,218.833 305.5,219.5C 304.662,219.842 304.328,220.508 304.5,221.5C 304.5,221.833 304.5,222.167 304.5,222.5C 263.047,284.178 205.381,308.678 131.5,296C 78.1921,282.029 41.0255,249.529 20,198.5C 2.18498,143.281 11.0183,92.9476 46.5,47.5C 46.5,47.1667 46.5,46.8333 46.5,46.5C 47.1667,46.5 47.5,46.1667 47.5,45.5C 48.1667,45.5 48.5,45.1667 48.5,44.5C 49.1667,44.5 49.5,44.1667 49.5,43.5C 49.5,43.1667 49.5,42.8333 49.5,42.5C 50.1667,42.5 50.5,42.1667 50.5,41.5C 51.1667,41.5 51.5,41.1667 51.5,40.5C 52.1667,40.5 52.5,40.1667 52.5,39.5C 53.1667,39.5 53.5,39.1667 53.5,38.5C 54.1667,38.5 54.5,38.1667 54.5,37.5C 55.1667,37.5 55.5,37.1667 55.5,36.5C 56.1667,36.5 56.5,36.1667 56.5,35.5C 71.6634,21.6714 88.6634,10.6714 107.5,2.5C 109.815,2.79912 109.815,3.63246 107.5,5C 103.976,6.59319 100.642,8.42652 97.5,10.5 Z M 130.5,235.5 C 132.167,235.5 133.833,235.5 135.5,235.5C 135.108,237.179 134.608,238.846 134,240.5C 133.743,238.093 132.576,236.427 130.5,235.5 Z M 254.5,249.5 C 255.167,249.5 255.833,249.5 256.5,249.5C 256.027,250.906 255.027,251.573 253.5,251.5C 253.833,250.833 254.167,250.167 254.5,249.5 Z"/></g>
<g><path style="opacity:0.004" fill="#000000" d="M 56.5,35.5 C 55.8333,35.5 55.5,35.8333 55.5,36.5C 55.1667,36.5 54.8333,36.5 54.5,36.5C 54.7107,34.5759 55.3774,34.2426 56.5,35.5 Z"/></g>
<g><path style="opacity:0.004" fill="#000000" d="M 54.5,36.5 C 54.5,36.8333 54.5,37.1667 54.5,37.5C 53.8333,37.5 53.5,37.8333 53.5,38.5C 53.1667,38.5 52.8333,38.5 52.5,38.5C 52.5,37.1667 53.1667,36.5 54.5,36.5 Z"/></g>
<g><path style="opacity:0.332" fill="#010101" d="M 52.5,38.5 C 52.5,38.8333 52.5,39.1667 52.5,39.5C 51.8333,39.5 51.5,39.8333 51.5,40.5C 50.8333,40.5 50.5,40.8333 50.5,41.5C 49.8333,41.5 49.5,41.8333 49.5,42.5C 48.1667,42.8333 48.1667,43.1667 49.5,43.5C 49.5,44.1667 49.1667,44.5 48.5,44.5C 47.8333,44.5 47.5,44.8333 47.5,45.5C 46.8333,45.5 46.5,45.8333 46.5,46.5C 45.1667,46.8333 45.1667,47.1667 46.5,47.5C 11.0183,92.9476 2.18498,143.281 20,198.5C 41.0255,249.529 78.1921,282.029 131.5,296C 205.381,308.678 263.047,284.178 304.5,222.5C 305.833,222.167 305.833,221.833 304.5,221.5C 304.328,220.508 304.662,219.842 305.5,219.5C 305.5,218.833 305.833,218.5 306.5,218.5C 307.167,218.5 307.5,218.167 307.5,217.5C 308.895,215.946 309.561,216.279 309.5,218.5C 299.335,244.652 283.002,266.152 260.5,283C 235.001,301.097 207.001,311.93 176.5,315.5C 166.167,315.5 155.833,315.5 145.5,315.5C 97.6814,310.535 58.848,288.869 29,250.5C 12.3473,226.708 2.51401,200.375 -0.5,171.5C -0.5,161.5 -0.5,151.5 -0.5,141.5C 3.01649,108.524 15.0165,79.5241 35.5,54.5C 40.5776,48.4188 46.2443,43.0855 52.5,38.5 Z M 130.5,235.5 C 132.167,235.5 133.833,235.5 135.5,235.5C 135.108,237.179 134.608,238.846 134,240.5C 133.743,238.093 132.576,236.427 130.5,235.5 Z M 254.5,249.5 C 255.167,249.5 255.833,249.5 256.5,249.5C 256.027,250.906 255.027,251.573 253.5,251.5C 253.833,250.833 254.167,250.167 254.5,249.5 Z"/></g>
<g><path style="opacity:0.972" fill="#7a6d64" d="M 160.5,73.5 C 160.5,73.8333 160.5,74.1667 160.5,74.5C 160.5,75.1667 160.833,75.5 161.5,75.5C 161.5,76.1667 161.833,76.5 162.5,76.5C 162.5,76.8333 162.5,77.1667 162.5,77.5C 163.026,79.2303 164.026,80.5637 165.5,81.5C 165.5,81.8333 165.5,82.1667 165.5,82.5C 165.5,83.1667 165.833,83.5 166.5,83.5C 166.5,84.1667 166.833,84.5 167.5,84.5C 174.244,104.304 173.911,123.971 166.5,143.5C 165.833,143.5 165.5,143.833 165.5,144.5C 161.943,150.555 156.943,155.055 150.5,158C 151.833,160.191 153.5,162.024 155.5,163.5C 155.5,164.167 155.833,164.5 156.5,164.5C 159.896,172.191 162.396,180.191 164,188.5C 164.876,199.515 165.876,210.515 167,221.5C 169.084,225.13 172.251,227.13 176.5,227.5C 177.568,228.434 178.901,228.768 180.5,228.5C 180.5,230.833 180.5,233.167 180.5,235.5C 179.167,235.5 177.833,235.5 176.5,235.5C 175.833,235.5 175.167,235.5 174.5,235.5C 165.167,235.5 155.833,235.5 146.5,235.5C 148.917,215.831 147.417,196.497 142,177.5C 139.011,166.987 132.178,162.32 121.5,163.5C 121.5,167.833 121.5,172.167 121.5,176.5C 121.087,191.217 121.587,205.884 123,220.5C 125.651,225.393 129.817,228.06 135.5,228.5C 136.167,228.5 136.5,228.833 136.5,229.5C 136.5,231.167 136.5,232.833 136.5,234.5C 136.5,235.167 136.167,235.5 135.5,235.5C 133.833,235.5 132.167,235.5 130.5,235.5C 126.5,235.5 122.5,235.5 118.5,235.5C 108.09,235.118 97.7565,234.118 87.5,232.5C 87.1617,228.849 88.8284,227.183 92.5,227.5C 96.7371,227.135 99.9038,225.135 102,221.5C 102.667,173.833 102.667,126.167 102,78.5C 99.2,72.3407 94.3667,69.0073 87.5,68.5C 87.5,66.1667 87.5,63.8333 87.5,61.5C 105.871,61.0979 124.204,61.5979 142.5,63C 149.273,65.2182 155.273,68.7182 160.5,73.5 Z M 121.5,88.5 C 130.204,90.0303 136.038,95.0303 139,103.5C 141.83,115.098 142.163,126.764 140,138.5C 139.521,141.624 138.354,144.457 136.5,147C 137.094,147.464 137.761,147.631 138.5,147.5C 137.391,148.29 136.058,148.79 134.5,149C 130.179,149.499 125.846,149.666 121.5,149.5C 121.5,129.167 121.5,108.833 121.5,88.5 Z M 121.5,176.5 C 122.571,180.104 124.738,183.104 128,185.5C 133.75,199.178 136.25,213.511 135.5,228.5C 129.817,228.06 125.651,225.393 123,220.5C 121.587,205.884 121.087,191.217 121.5,176.5 Z"/></g>
<g><path style="opacity:0.957" fill="#7b6d64" d="M 249.5,147.5 C 248.662,147.842 248.328,148.508 248.5,149.5C 247.833,149.5 247.5,149.833 247.5,150.5C 241.838,158.294 234.172,163.128 224.5,165C 218.509,165.499 212.509,165.666 206.5,165.5C 206.178,171.358 206.511,177.025 207.5,182.5C 207.333,195.171 207.5,207.838 208,220.5C 208.774,222.939 210.274,224.773 212.5,226C 215.903,226.578 219.07,227.745 222,229.5C 222.495,231.473 222.662,233.473 222.5,235.5C 220.167,235.5 217.833,235.5 215.5,235.5C 206.5,235.5 197.5,235.5 188.5,235.5C 188.667,185.166 188.5,134.832 188,84.5C 188.489,75.4241 184.322,70.4241 175.5,69.5C 175.158,68.6618 174.492,68.3284 173.5,68.5C 173.167,68.5 172.833,68.5 172.5,68.5C 172.5,67.8333 172.167,67.5 171.5,67.5C 171.5,65.5 171.5,63.5 171.5,61.5C 190.17,61.3334 208.836,61.5001 227.5,62C 238.758,64.5861 246.258,71.4194 250,82.5C 251.839,87.6911 253.172,93.0244 254,98.5C 255.805,115.205 254.305,131.538 249.5,147.5 Z M 220.5,150.5 C 219.167,150.833 219.167,151.167 220.5,151.5C 220.5,151.833 220.5,152.167 220.5,152.5C 216.167,152.5 211.833,152.5 207.5,152.5C 207.5,132.5 207.5,112.5 207.5,92.5C 207.62,91.4138 208.287,90.7472 209.5,90.5C 217.21,92.5711 221.71,97.5711 223,105.5C 225.506,120.721 224.672,135.721 220.5,150.5 Z"/></g>
<g><path style="opacity:0.333" fill="#000000" d="M 87.5,68.5 C 94.3667,69.0073 99.2,72.3407 102,78.5C 102.667,126.167 102.667,173.833 102,221.5C 99.9038,225.135 96.7371,227.135 92.5,227.5C 91.7222,226.844 91.0556,226.011 90.5,225C 91.4598,182.312 91.7932,139.646 91.5,97C 90.3557,88.4004 85.3557,83.9004 76.5,83.5C 76.6556,80.9339 76.3223,78.4339 75.5,76C 76.1271,73.8649 76.6271,71.6982 77,69.5C 80.3936,68.5442 83.8936,68.2108 87.5,68.5 Z"/></g>
<g><path style="opacity:0.331" fill="#030202" d="M 171.5,67.5 C 172.167,67.5 172.5,67.8333 172.5,68.5C 172.833,69.8333 173.167,69.8333 173.5,68.5C 174.492,68.3284 175.158,68.6618 175.5,69.5C 184.322,70.4241 188.489,75.4241 188,84.5C 188.5,134.832 188.667,185.166 188.5,235.5C 197.5,235.5 206.5,235.5 215.5,235.5C 216.531,236.249 217.698,236.915 219,237.5C 219.667,241.167 219.667,244.833 219,248.5C 218.3,250.032 217.134,251.032 215.5,251.5C 190.167,250.167 164.833,250.167 139.5,251.5C 136.435,250.603 134.602,248.603 134,245.5C 134.094,248.501 132.761,250.501 130,251.5C 112.398,250.546 94.8977,250.213 77.5,250.5C 75.1571,245.935 74.9904,241.268 77,236.5C 79.564,234.923 82.3974,233.923 85.5,233.5C 86.1835,233.863 86.8501,234.196 87.5,234.5C 97.6532,235.494 107.986,235.828 118.5,235.5C 122.5,235.5 126.5,235.5 130.5,235.5C 132.576,236.427 133.743,238.093 134,240.5C 134.608,238.846 135.108,237.179 135.5,235.5C 136.167,235.5 136.5,235.167 136.5,234.5C 137.833,232.833 137.833,231.167 136.5,229.5C 136.5,228.833 136.167,228.5 135.5,228.5C 136.25,213.511 133.75,199.178 128,185.5C 124.738,183.104 122.571,180.104 121.5,176.5C 121.5,172.167 121.5,167.833 121.5,163.5C 132.178,162.32 139.011,166.987 142,177.5C 147.417,196.497 148.917,215.831 146.5,235.5C 155.833,235.5 165.167,235.5 174.5,235.5C 175.167,236.833 175.833,236.833 176.5,235.5C 177.833,235.5 179.167,235.5 180.5,235.5C 180.5,233.167 180.5,230.833 180.5,228.5C 178.901,228.768 177.568,228.434 176.5,227.5C 176.667,184.165 176.5,140.832 176,97.5C 176.637,90.748 173.803,86.4147 167.5,84.5C 166.833,84.5 166.5,84.1667 166.5,83.5C 165.833,83.5 165.5,83.1667 165.5,82.5C 166.833,82.1667 166.833,81.8333 165.5,81.5C 164.026,80.5637 163.026,79.2303 162.5,77.5C 163.833,77.1667 163.833,76.8333 162.5,76.5C 161.833,76.5 161.5,76.1667 161.5,75.5C 160.833,75.5 160.5,75.1667 160.5,74.5C 161.833,74.1667 161.833,73.8333 160.5,73.5C 160.751,71.8297 161.418,70.3297 162.5,69C 165.695,68.8195 168.695,68.3195 171.5,67.5 Z M 130.5,235.5 C 132.167,235.5 133.833,235.5 135.5,235.5C 135.108,237.179 134.608,238.846 134,240.5C 133.743,238.093 132.576,236.427 130.5,235.5 Z"/></g>
<g><path style="opacity:0.371" fill="#020201" d="M 139.5,147.5 C 139.167,146.167 138.833,146.167 138.5,147.5C 137.761,147.631 137.094,147.464 136.5,147C 138.354,144.457 139.521,141.624 140,138.5C 142.163,126.764 141.83,115.098 139,103.5C 136.038,95.0303 130.204,90.0303 121.5,88.5C 120.912,76.2817 126.578,72.115 138.5,76C 145.227,79.0646 149.394,84.2313 151,91.5C 155.234,108.674 153.9,125.341 147,141.5C 144.894,144.118 142.394,146.118 139.5,147.5 Z"/></g>
<g><path style="opacity:0.371" fill="#010101" d="M 220.5,152.5 C 220.5,152.167 220.5,151.833 220.5,151.5C 221.833,151.167 221.833,150.833 220.5,150.5C 224.672,135.721 225.506,120.721 223,105.5C 221.71,97.5711 217.21,92.5711 209.5,90.5C 208.287,90.7472 207.62,91.4138 207.5,92.5C 203.831,75.3643 210.164,70.531 226.5,78C 231.576,82.3177 234.409,87.8177 235,94.5C 235.667,106.5 235.667,118.5 235,130.5C 233.924,138.084 230.758,144.584 225.5,150C 223.922,151.094 222.255,151.928 220.5,152.5 Z"/></g>
<g><path style="opacity:0.596" fill="#544944" d="M 43.5,82.5 C 43.2914,83.9217 42.7914,85.255 42,86.5C 41.2274,84.6476 41.7274,83.3143 43.5,82.5 Z"/></g>
<g><path style="opacity:0.133" fill="#040303" d="M 166.5,143.5 C 167.097,143.735 167.43,144.235 167.5,145C 165.602,152.44 162.435,159.273 158,165.5C 157.617,164.944 157.117,164.611 156.5,164.5C 155.833,164.5 155.5,164.167 155.5,163.5C 153.5,162.024 151.833,160.191 150.5,158C 156.943,155.055 161.943,150.555 165.5,144.5C 165.5,143.833 165.833,143.5 166.5,143.5 Z"/></g>
<g><path style="opacity:0.295" fill="#030202" d="M 249.5,147.5 C 248.152,164.06 239.319,175.06 223,180.5C 222.586,180.043 222.086,179.709 221.5,179.5C 216.709,180.509 212.043,181.509 207.5,182.5C 206.511,177.025 206.178,171.358 206.5,165.5C 212.509,165.666 218.509,165.499 224.5,165C 234.172,163.128 241.838,158.294 247.5,150.5C 248.167,150.5 248.5,150.167 248.5,149.5C 249.338,149.158 249.672,148.492 249.5,147.5 Z"/></g>
<g><path style="opacity:0.769" fill="#463f3a" d="M 311.5,176.5 C 311.279,179.067 310.612,181.401 309.5,183.5C 309.171,180.772 309.837,178.438 311.5,176.5 Z"/></g>
<g><path style="opacity:0.004" fill="#000000" d="M 309.5,185.5 C 310.833,186.167 310.833,186.167 309.5,185.5 Z"/></g>
<g><path style="opacity:0.004" fill="#000000" d="M 307.5,191.5 C 308.833,192.167 308.833,192.833 307.5,193.5C 307.5,192.833 307.5,192.167 307.5,191.5 Z"/></g>
<g><path style="opacity:0.116" fill="#040403" d="M 306.5,192.5 C 306.5,193.167 306.833,193.5 307.5,193.5C 306.338,199.486 304.338,205.152 301.5,210.5C 303.291,211.17 304.958,211.837 306.5,212.5C 305.833,212.5 305.5,212.833 305.5,213.5C 304.167,214.167 304.167,214.833 305.5,215.5C 305.5,216.167 305.167,216.5 304.5,216.5C 303.833,216.5 303.5,216.833 303.5,217.5C 302.167,217.833 302.167,218.167 303.5,218.5C 297.934,227.401 291.267,235.401 283.5,242.5C 282.833,242.5 282.5,242.833 282.5,243.5C 282.5,244.167 282.167,244.5 281.5,244.5C 280.833,244.5 280.5,244.833 280.5,245.5C 280.5,246.167 280.167,246.5 279.5,246.5C 279.167,245.167 278.833,245.167 278.5,246.5C 277.833,246.5 277.5,246.833 277.5,247.5C 276.833,247.5 276.5,247.833 276.5,248.5C 275.833,248.5 275.5,248.833 275.5,249.5C 274.833,249.5 274.5,249.833 274.5,250.5C 273.833,250.5 273.5,250.833 273.5,251.5C 272.833,251.5 272.5,251.833 272.5,252.5C 272.5,253.167 272.167,253.5 271.5,253.5C 271.167,252.167 270.833,252.167 270.5,253.5C 269.833,253.5 269.5,253.833 269.5,254.5C 269.5,255.167 269.167,255.5 268.5,255.5C 267.833,255.5 267.5,255.833 267.5,256.5C 267.5,257.167 267.167,257.5 266.5,257.5C 266.167,256.167 265.833,256.167 265.5,257.5C 264.833,257.5 264.5,257.833 264.5,258.5C 264.167,259.5 263.5,260.167 262.5,260.5C 262.167,259.167 261.833,259.167 261.5,260.5C 261.167,261.5 260.5,262.167 259.5,262.5C 259.167,261.167 258.833,261.167 258.5,262.5C 248.042,269.729 236.709,275.396 224.5,279.5C 224.167,278.167 223.833,278.167 223.5,279.5C 222.609,280.11 221.609,280.443 220.5,280.5C 219.791,281.404 218.791,281.737 217.5,281.5C 216.754,279.864 217.088,278.197 218.5,276.5C 221.988,273.443 225.322,271.443 228.5,270.5C 228.842,269.662 229.508,269.328 230.5,269.5C 230.842,268.662 231.508,268.328 232.5,268.5C 232.842,267.662 233.508,267.328 234.5,267.5C 234.842,266.662 235.508,266.328 236.5,266.5C 236.833,267.833 237.167,267.833 237.5,266.5C 237.5,265.833 237.833,265.5 238.5,265.5C 238.833,266.833 239.167,266.833 239.5,265.5C 239.5,264.833 239.833,264.5 240.5,264.5C 240.833,265.833 241.167,265.833 241.5,264.5C 267.6,249.067 287.933,228.067 302.5,201.5C 303.833,201.167 303.833,200.833 302.5,200.5C 302.427,198.973 303.094,197.973 304.5,197.5C 305.833,197.167 305.833,196.833 304.5,196.5C 304.328,195.508 304.662,194.842 305.5,194.5C 305.328,193.508 305.662,192.842 306.5,192.5 Z"/></g>
<g><path style="opacity:0.888" fill="#645851" d="M 87.5,232.5 C 97.7565,234.118 108.09,235.118 118.5,235.5C 107.986,235.828 97.6532,235.494 87.5,234.5C 87.5,233.833 87.5,233.167 87.5,232.5 Z"/></g>
<g><path style="opacity:0.004" fill="#000000" d="M 257.5,247.5 C 257.5,247.833 257.5,248.167 257.5,248.5C 256.833,248.5 256.5,248.833 256.5,249.5C 255.833,249.5 255.167,249.5 254.5,249.5C 254.973,248.094 255.973,247.427 257.5,247.5 Z"/></g>
<g><path style="opacity:0.663" fill="#332d2a" d="M 250.5,254.5 C 250.5,255.833 249.833,256.5 248.5,256.5C 248.987,255.527 249.487,254.527 250,253.5C 250.399,253.728 250.565,254.062 250.5,254.5 Z"/></g>
</svg>
