<?xml version="1.0" standalone="no"?>
<!DOCTYPE svg PUBLIC "-//W3C//DTD SVG 20010904//EN"
 "http://www.w3.org/TR/2001/REC-SVG-20010904/DTD/svg10.dtd">
<svg version="1.0" xmlns="http://www.w3.org/2000/svg"
 width="317.000000pt" height="316.000000pt" viewBox="0 0 317.000000 316.000000"
 preserveAspectRatio="xMidYMid meet">

<g transform="translate(0.000000,316.000000) scale(0.100000,-0.100000)"
fill="#000000" stroke="none">
<path d="M1570 3143 c-97 -9 -267 -52 -370 -93 -186 -74 -410 -231 -530 -371
-30 -35 -57 -66 -60 -69 -10 -9 -77 -104 -104 -147 -38 -62 -18 -52 29 13 57
80 197 220 285 285 431 319 992 372 1461 139 95 -48 245 -148 284 -191 22 -23
13 -18 -30 16 -179 144 -402 242 -645 281 -115 19 -408 13 -510 -10 -170 -39
-392 -130 -465 -191 -26 -21 -17 -19 65 16 186 81 311 114 491 131 723 68
1386 -435 1515 -1149 33 -184 14 -483 -40 -626 -37 -99 -109 -232 -168 -312
-69 -93 -219 -240 -302 -295 -107 -71 -82 -64 44 13 309 188 539 526 617 910
26 126 24 412 -4 537 -59 263 -179 490 -359 679 -224 236 -540 395 -856 431
-78 9 -270 11 -348 3z m1120 -550 c0 -8 -9 0 -50 45 l-45 47 48 -45 c26 -24
47 -45 47 -47z"/>
<path d="M905 3032 c-57 -31 -166 -104 -203 -136 -100 -84 -147 -128 -190
-178 -169 -193 -268 -367 -351 -616 -89 -266 -110 -473 -75 -723 114 -822 891
-1404 1726 -1294 241 32 462 113 645 236 75 51 114 90 50 50 -161 -99 -399
-184 -592 -209 -117 -16 -247 -22 -270 -12 -13 5 22 9 95 9 350 3 700 142 986
389 85 74 202 212 273 321 51 80 54 101 4 35 -250 -331 -586 -537 -994 -609
-170 -30 -457 -17 -634 30 -303 79 -586 255 -780 486 -99 118 -154 203 -215
332 -98 209 -130 343 -137 582 -9 274 26 449 136 680 95 200 266 416 431 544
36 28 70 55 76 60 6 5 25 16 42 25 18 9 32 19 32 21 0 7 -1 7 -55 -23z m452
-2848 c-3 -3 -12 -4 -19 -1 -8 3 -5 6 6 6 11 1 17 -2 13 -5z m116 -21 c-7 -2
-21 -2 -30 0 -10 3 -4 5 12 5 17 0 24 -2 18 -5z m65 -10 c-10 -2 -26 -2 -35 0
-10 3 -2 5 17 5 19 0 27 -2 18 -5z"/>
<path d="M892 2505 c2 -22 12 -31 48 -45 24 -9 50 -27 58 -39 14 -21 14 -21
-61 -21 -42 0 -78 -4 -81 -9 -3 -5 15 -20 42 -32 34 -17 53 -35 67 -64 19 -39
20 -63 23 -718 l3 -678 -48 -21 c-57 -24 -49 -18 -57 -44 -6 -19 -1 -22 35
-28 34 -5 39 -9 29 -21 -6 -8 -31 -22 -56 -31 -24 -9 -44 -21 -44 -25 0 -5 92
-9 205 -9 113 0 205 4 205 9 0 5 -15 14 -32 21 -18 8 -41 20 -51 28 -27 24 -4
32 96 32 85 0 87 1 87 24 0 19 -9 27 -52 42 -92 34 -93 38 -93 314 0 131 3
241 6 244 11 11 55 -11 87 -43 78 -78 112 -214 121 -476 l6 -190 133 -3 c133
-3 164 6 98 28 -18 6 -41 19 -50 29 -16 17 -16 19 -1 25 9 3 55 6 101 6 l85 0
-3 26 c-2 21 -12 29 -52 42 -78 27 -86 45 -97 218 -12 180 -37 295 -86 391
l-36 72 52 57 c85 93 116 171 130 329 14 164 -13 318 -75 416 -34 54 -109 116
-173 141 -51 20 -77 22 -314 26 l-259 4 4 -27z m531 -127 c15 -11 32 -29 38
-41 11 -21 11 -21 -7 -5 -30 27 -106 57 -144 59 -32 1 -33 2 -10 8 35 11 90 1
123 -21z m-58 -89 c80 -55 115 -151 122 -336 7 -160 1 -193 -40 -240 -42 -48
-82 -63 -167 -63 l-70 0 0 304 c0 167 3 318 6 336 l7 32 54 -5 c33 -3 68 -15
88 -28z m-102 -776 c-7 -2 -21 -2 -30 0 -10 3 -4 5 12 5 17 0 24 -2 18 -5z"/>
<path d="M1730 2507 c0 -20 9 -28 48 -42 26 -10 55 -25 65 -33 33 -29 20 -37
-54 -34 -91 5 -105 -8 -42 -39 30 -15 55 -37 68 -59 19 -34 20 -56 25 -805 l5
-770 133 -3 c72 -1 132 1 132 6 0 5 -12 14 -27 21 -100 45 -88 61 45 61 89 0
92 1 92 23 0 18 -10 26 -57 42 -90 32 -95 44 -101 238 -2 90 -2 193 2 229 l7
66 62 7 c34 4 83 15 108 25 49 18 119 66 119 81 0 6 15 23 34 40 68 59 112
148 136 276 16 83 8 340 -13 415 -35 122 -95 210 -171 251 -39 21 -54 22 -328
25 l-288 3 0 -24z m478 -114 c-10 -2 -26 -2 -35 0 -10 3 -2 5 17 5 19 0 27 -2
18 -5z m47 -13 c3 -6 -1 -7 -9 -4 -18 7 -21 14 -7 14 6 0 13 -4 16 -10z m-51
-89 c86 -53 120 -177 114 -406 -5 -167 -14 -195 -71 -239 -30 -23 -44 -26
-110 -26 l-77 0 0 304 c0 167 3 325 7 351 l6 47 47 -4 c26 -3 64 -15 84 -27z
m-91 -808 c-7 -2 -21 -2 -30 0 -10 3 -4 5 12 5 17 0 24 -2 18 -5z"/>
<path d="M470 2399 c0 -5 5 -7 10 -4 6 3 10 8 10 11 0 2 -4 4 -10 4 -5 0 -10
-5 -10 -11z"/>
<path d="M455 2369 c-4 -6 -5 -12 -2 -15 2 -3 7 2 10 11 7 17 1 20 -8 4z"/>
<path d="M3045 970 c-3 -5 -1 -10 4 -10 6 0 11 5 11 10 0 6 -2 10 -4 10 -3 0
-8 -4 -11 -10z"/>
</g>
</svg>
